<?xml version="1.0" encoding="UTF-8" standalone="no"?>
<!DOCTYPE svg PUBLIC "-//W3C//DTD SVG 1.1//EN"
 "http://www.w3.org/Graphics/SVG/1.1/DTD/svg11.dtd">
<!-- Generated by graphviz version 2.47.0 (20210316.0004)
 -->
<!-- Title: dependencies Pages: 1 -->
<svg width="628pt" height="284pt"
 viewBox="0.00 0.00 628.00 284.00" xmlns="http://www.w3.org/2000/svg" xmlns:xlink="http://www.w3.org/1999/xlink">
<g id="graph0" class="graph" transform="scale(1 1) rotate(0) translate(4 280)">
<title>dependencies</title>
<polygon fill="white" stroke="transparent" points="-4,4 -4,-280 624,-280 624,4 -4,4"/>
<text text-anchor="start" x="289.01" y="-42.4" font-family="sans-serif" font-weight="bold" font-size="14.00">Legend</text>
<polygon fill="#ffffb3" stroke="transparent" points="76,-10 76,-30 96,-30 96,-10 76,-10"/>
<text text-anchor="start" x="99.63" y="-15.4" font-family="sans-serif" font-size="14.00"> &#160;Declarations</text>
<polygon fill="#8dd3c7" stroke="transparent" points="189,-10 189,-30 209,-30 209,-10 189,-10"/>
<text text-anchor="start" x="212.73" y="-15.4" font-family="sans-serif" font-size="14.00"> &#160;Module</text>
<polygon fill="#80b1d3" stroke="transparent" points="275,-10 275,-30 295,-30 295,-10 275,-10"/>
<text text-anchor="start" x="298.78" y="-15.4" font-family="sans-serif" font-size="14.00"> &#160;Bootstrap</text>
<polygon fill="#fdb462" stroke="transparent" points="372,-10 372,-30 392,-30 392,-10 372,-10"/>
<text text-anchor="start" x="395.67" y="-15.4" font-family="sans-serif" font-size="14.00"> &#160;Providers</text>
<polygon fill="#fb8072" stroke="transparent" points="468,-10 468,-30 488,-30 488,-10 468,-10"/>
<text text-anchor="start" x="491.73" y="-15.4" font-family="sans-serif" font-size="14.00"> &#160;Exports</text>
<g id="clust1" class="cluster">
<title>cluster_AppModule</title>
<polygon fill="none" stroke="black" stroke-dasharray="1,5" points="8,-70 8,-268 612,-268 612,-70 8,-70"/>
</g>
<g id="clust2" class="cluster">
<title>cluster_AppModule_declarations</title>
<polygon fill="none" stroke="black" points="16,-78 16,-130 604,-130 604,-78 16,-78"/>
</g>
<g id="clust9" class="cluster">
<title>cluster_AppModule_bootstrap</title>
<polygon fill="none" stroke="black" points="265,-208 265,-260 389,-260 389,-208 265,-208"/>
</g>
<!-- AppComponent -->
<g id="node1" class="node">
<title>AppComponent</title>
<polygon fill="#ffffb3" stroke="black" points="595.94,-122 490.06,-122 490.06,-86 595.94,-86 595.94,-122"/>
<text text-anchor="middle" x="543" y="-99.8" font-family="Times,serif" font-size="14.00">AppComponent</text>
</g>
<!-- AppModule -->
<g id="node5" class="node">
<title>AppModule</title>
<polygon fill="#8dd3c7" stroke="black" points="368.66,-187 365.66,-191 344.66,-191 341.66,-187 285.34,-187 285.34,-151 368.66,-151 368.66,-187"/>
<text text-anchor="middle" x="327" y="-164.8" font-family="Times,serif" font-size="14.00">AppModule</text>
</g>
<!-- AppComponent&#45;&gt;AppModule -->
<g id="edge1" class="edge">
<title>AppComponent&#45;&gt;AppModule</title>
<path fill="none" stroke="black" d="M543,-122.11C543,-141.34 543,-169 543,-169 543,-169 378.9,-169 378.9,-169"/>
<polygon fill="black" stroke="black" points="378.9,-165.5 368.9,-169 378.9,-172.5 378.9,-165.5"/>
</g>
<!-- InfoDialogComponent -->
<g id="node2" class="node">
<title>InfoDialogComponent</title>
<polygon fill="#ffffb3" stroke="black" points="472.26,-122 329.74,-122 329.74,-86 472.26,-86 472.26,-122"/>
<text text-anchor="middle" x="401" y="-99.8" font-family="Times,serif" font-size="14.00">InfoDialogComponent</text>
</g>
<!-- InfoDialogComponent&#45;&gt;AppModule -->
<g id="edge2" class="edge">
<title>InfoDialogComponent&#45;&gt;AppModule</title>
<path fill="none" stroke="black" d="M349.23,-122.11C349.23,-122.11 349.23,-140.99 349.23,-140.99"/>
<polygon fill="black" stroke="black" points="345.73,-140.99 349.23,-150.99 352.73,-140.99 345.73,-140.99"/>
</g>
<!-- InfoDialogDialog -->
<g id="node3" class="node">
<title>InfoDialogDialog</title>
<polygon fill="#ffffb3" stroke="black" points="311.53,-122 196.47,-122 196.47,-86 311.53,-86 311.53,-122"/>
<text text-anchor="middle" x="254" y="-99.8" font-family="Times,serif" font-size="14.00">InfoDialogDialog</text>
</g>
<!-- InfoDialogDialog&#45;&gt;AppModule -->
<g id="edge3" class="edge">
<title>InfoDialogDialog&#45;&gt;AppModule</title>
<path fill="none" stroke="black" d="M298.47,-122.11C298.47,-122.11 298.47,-140.99 298.47,-140.99"/>
<polygon fill="black" stroke="black" points="294.97,-140.99 298.47,-150.99 301.97,-140.99 294.97,-140.99"/>
</g>
<!-- TableUploadComponent -->
<g id="node4" class="node">
<title>TableUploadComponent</title>
<polygon fill="#ffffb3" stroke="black" points="178.42,-122 23.58,-122 23.58,-86 178.42,-86 178.42,-122"/>
<text text-anchor="middle" x="101" y="-99.8" font-family="Times,serif" font-size="14.00">TableUploadComponent</text>
</g>
<!-- TableUploadComponent&#45;&gt;AppModule -->
<g id="edge4" class="edge">
<title>TableUploadComponent&#45;&gt;AppModule</title>
<path fill="none" stroke="black" d="M101,-122.11C101,-141.34 101,-169 101,-169 101,-169 275.28,-169 275.28,-169"/>
<polygon fill="black" stroke="black" points="275.28,-172.5 285.28,-169 275.28,-165.5 275.28,-172.5"/>
</g>
<!-- AppComponent  -->
<g id="node6" class="node">
<title>AppComponent </title>
<polygon fill="#80b1d3" stroke="black" points="381.44,-252 272.56,-252 272.56,-216 381.44,-216 381.44,-252"/>
<text text-anchor="middle" x="327" y="-229.8" font-family="Times,serif" font-size="14.00">AppComponent </text>
</g>
<!-- AppModule&#45;&gt;AppComponent  -->
<g id="edge5" class="edge">
<title>AppModule&#45;&gt;AppComponent </title>
<path fill="none" stroke="black" stroke-dasharray="1,5" d="M327,-187.11C327,-187.11 327,-205.99 327,-205.99"/>
<polygon fill="black" stroke="black" points="323.5,-205.99 327,-215.99 330.5,-205.99 323.5,-205.99"/>
</g>
</g>
</svg>
